<svg width="318" height="106" viewBox="0 0 318 106" fill="none" xmlns="http://www.w3.org/2000/svg">
<g clip-path="url(#clip0_1_3)">
<path d="M246.648 44.04C246.004 46.2064 248.053 54.0646 244.773 53.8752C242.901 53.7681 235.268 45.4733 233.087 44.0688C224.755 43.3028 215.353 44.8061 207.153 43.9782C201.329 43.3934 196.776 38.3934 196.206 32.6521C195.69 27.4874 195.694 16.4126 196.206 11.2437C196.826 5.0082 201.849 0.790767 207.959 0.308892C220.702 -0.696042 234.747 1.09142 247.631 0.321248C252.171 0.934917 256.137 4.26273 257.458 8.64491C258.743 12.8953 258.669 31.6554 257.244 35.8605C255.608 40.6834 251.407 43.0516 246.648 44.04Z" fill="#74BCA8"/>
<path d="M217.092 27.1374C219.93 27.1374 222.231 24.8435 222.231 22.0138C222.231 19.1842 219.93 16.8903 217.092 16.8903C214.254 16.8903 211.953 19.1842 211.953 22.0138C211.953 24.8435 214.254 27.1374 217.092 27.1374Z" fill="#FBF9F7"/>
<path d="M237.176 27.092C239.984 27.092 242.261 24.8221 242.261 22.0221C242.261 19.222 239.984 16.9521 237.176 16.9521C234.368 16.9521 232.091 19.222 232.091 22.0221C232.091 24.8221 234.368 27.092 237.176 27.092Z" fill="#FBF9F7"/>
<path d="M187.937 69.1098C189.374 68.2779 195.876 65.7244 197.243 66.5769C197.665 66.8405 197.979 74.5011 197.599 74.6658C194.971 74.4187 192.575 74.7647 190.415 75.6996C190.337 76.1979 189.077 76.4698 188.552 76.931C181.116 83.5249 186.404 95.8147 184.219 104.53C184.124 97.6969 183.987 90.9713 183.806 84.3486C184.277 90.8972 184.074 97.977 183.806 104.53C181.583 104.987 178.766 104.843 176.37 104.53L175.998 104.456C175.945 92.3634 175.932 80.263 175.957 68.1585L176.37 67.8743C178.593 67.5324 181.497 67.553 183.806 67.8743C183.959 69.6206 184.099 71.128 184.219 72.4047C185.561 71.3915 186.577 70.0901 187.937 69.1098Z" fill="#1C4370"/>
<path d="M184.219 104.53C184.173 105.098 183.612 104.909 183.207 104.958C182.248 105.077 175.544 105.185 175.544 104.324V67.4624H184.219L184.219 72.4047C184.194 72.4212 184.268 72.8866 183.81 72.8166V67.8743L176.37 67.8743V104.53H183.806V84.3486C184.533 84.258 184.198 85.2794 184.219 85.786C184.479 92.0133 184.025 98.3024 184.219 104.53Z" fill="#1C4370"/>
<path d="M187.937 69.1098C189.134 68.2449 197.851 64.2911 197.851 66.8446V74.8759C195.335 74.7111 192.848 75.1189 190.415 75.6996C190.419 75.6625 190.064 75.4648 189.998 75.3042C192.456 74.4475 194.847 74.3404 197.437 74.464V67.0506L193.199 67.1494L187.937 69.1098Z" fill="#1C4370"/>
<path d="M56.1628 39.456C55.9191 39.8349 56.4974 40.3209 55.0434 40.5928C50.2764 41.4741 51.0902 37.5162 48.3184 35.3416C47.0544 38.2781 45.5094 41.1858 43.9851 43.9988C34.0174 62.4007 24.1984 81.8898 13.6855 99.8674C12.7436 101.478 10.5295 105.769 8.45169 105.769H0.603101C0.495699 105.769 -0.173496 105.135 0.0413073 104.814L40.8787 29.5714H32.8236C31.1878 29.5714 29.8907 26.915 30.2088 25.3458C30.6095 23.3565 38.0326 19.1473 40.0856 17.8705C43.0929 15.9966 48.1036 12.71 51.2058 11.4538C54.18 10.5642 55.8654 11.2314 56.2579 13.4595L56.9064 35.6381C57.0468 37.059 56.799 38.3358 56.1628 39.4602V39.456Z" fill="#1C4370"/>
<path d="M56.1628 39.456C57.1749 36.5854 56.2124 33.7477 56.1463 31.0294C56.0265 25.9924 56.8899 18.3277 56.1381 13.7396C56.0265 13.06 55.5515 11.9563 54.9236 11.6556C53.4985 10.9719 52.3418 12.0798 51.2058 11.4497C57.6747 8.82201 56.3115 14.2915 56.5594 18.2618C56.9147 23.9207 57.716 32.5533 57.0138 38.0475C56.8486 39.3284 56.4272 39.0524 56.1628 39.456Z" fill="#1C4370"/>
<path d="M70.6208 64.5794C70.0259 61.3216 69.3361 58.0432 68.5595 54.736L76.9368 54.4971C79.7871 66.9641 82.7737 79.3857 85.9049 91.7662C86.3716 91.9845 86.8756 91.8362 86.7765 91.1813L95.8271 55.7368C95.9056 55.535 96.0378 55.5062 96.232 55.5268L96.455 54.6413C96.8681 54.2541 104.82 54.39 105.13 54.703L110.273 73.6485C111.88 79.4887 113.755 85.2876 115.184 91.1855C115.085 91.8444 115.589 91.9886 116.056 91.7703C118.778 81.9145 121.537 71.3627 123.078 61.2928C123.425 59.8883 123.937 58.5416 124.318 57.1742C124.536 56.5852 124.813 55.7615 125.144 54.703C127.507 54.3612 130.547 54.3818 132.992 54.703L133.319 55.1067C132.74 57.1454 132.356 59.2088 132.166 61.2928L121.005 103.504C120.922 103.665 120.777 103.735 120.6 103.714L120.381 104.591C118.894 104.814 112.008 105.255 111.198 104.365C110.669 102.466 110.223 101.012 109.86 100.003C109.281 98.0429 108.418 95.6253 107.794 93.4136C105.791 84.2951 103.713 76.0703 101.557 68.7351L101.185 68.7021C100.702 68.8792 100.685 68.315 100.326 69.3034C98.9707 73.0513 97.7604 78.2984 96.6409 82.2934L90.4529 104.283C89.7218 105.135 82.7365 105.325 81.8897 104.839L81.456 104.081L75.1606 81.0579C73.6941 75.5678 72.0294 70.0942 70.6166 64.5835L70.6208 64.5794Z" fill="#1C4370"/>
<path d="M75.1647 81.0537L82.0467 104.55C83.5627 104.262 89.5565 105.057 90.2546 104.13L96.6492 82.2934C94.5796 89.6698 92.9603 97.2027 90.6429 104.517C89.8292 105.708 84.3434 105.588 82.7943 105.378C81.931 105.263 81.3568 105.164 81.0594 104.225C78.9898 96.5355 77.226 88.7473 75.1729 81.0579L75.1647 81.0537Z" fill="#1C4370"/>
<path d="M70.6208 64.5794C69.7492 61.1733 68.6958 57.7631 68.1423 54.2829H77.2301L85.9049 91.7621C84.1699 90.9548 78.4941 58.8093 76.7964 54.7072L68.9684 55.1108C68.6008 55.4567 70.534 61.5358 70.7653 62.5942C70.8975 63.1956 71.4056 64.1881 70.6249 64.5835L70.6208 64.5794Z" fill="#1C4370"/>
<path d="M116.06 91.7621C118.282 81.585 120.579 71.3915 123.082 61.2845C123.847 61.6799 123.442 62.7343 123.314 63.3644C121.736 71.3092 119.398 81.5768 117.097 89.295C116.915 89.9005 116.556 91.5273 116.06 91.7621Z" fill="#1C4370"/>
<path d="M96.232 55.5185C96.1824 54.077 95.9758 54.3818 97.244 54.2829C99.8836 54.077 102.635 54.3983 105.278 54.3241C107.009 60.7326 108.513 67.2441 110.277 73.6403L104.89 54.7154C102.54 55.0078 99.0533 54.2582 96.8722 54.6701C96.422 54.7566 96.6946 55.6091 96.6368 55.9427C96.4468 55.8892 96.2939 55.5268 96.232 55.5226V55.5185Z" fill="#1C4370"/>
<path d="M107.798 93.4095C105.489 85.2094 103.354 76.9352 101.189 68.698C101.891 68.4426 101.346 67.6848 101.788 69.1181C103.965 76.1485 106.319 84.2662 107.943 91.4161C108.079 92.0174 108.571 93.0182 107.798 93.4095Z" fill="#1C4370"/>
<path d="M124.322 57.166C124.532 56.4081 124.503 55.1355 124.735 54.2829H133.823L132.17 61.2845C131.183 59.3776 133.232 56.8735 132.996 54.6948H125.148C124.921 54.6948 124.813 59.9007 124.322 57.166Z" fill="#1C4370"/>
<path d="M109.864 99.9992C110.43 99.1055 110.364 100.407 110.467 100.835C110.673 101.692 111.037 104.225 111.776 104.476C112.276 104.649 119.237 104.694 119.964 104.554C120.414 104.468 120.141 103.611 120.199 103.282C120.397 103.331 120.542 103.694 120.604 103.702C120.653 105.143 120.86 104.839 119.592 104.937C118.324 105.036 112.218 105.176 111.363 104.884C110.364 104.542 110.157 100.988 109.864 99.9951V99.9992Z" fill="#1C4370"/>
<path d="M68.1423 104.53C66.4817 105.003 61.0455 105.213 59.9302 104.077L54.5105 90.1146C53.9322 88.8585 53.6141 88.1912 52.032 88.4672C51.842 88.2036 51.2224 88.0677 50.1731 88.0553C45.212 88.702 38.7266 88.599 33.6498 88.0553C32.1668 89.6245 29.8288 88.0347 28.8993 87.2316C28.2301 85.8972 28.1599 83.9532 29.7255 83.113C36.8553 82.4911 44.0182 82.2152 51.2058 82.2893L43.3696 58.9781C43.3366 58.0926 46.8726 51.8983 47.6657 51.3711C48.9669 50.5062 49.7724 51.1528 50.5656 52.2401L68.7867 102.038C69.0676 103.537 69.2535 103.549 68.1423 104.53Z" fill="#1C4370"/>
<path d="M28.8993 87.2316L29.1059 86.828C29.8164 87.5652 30.5475 88.3354 31.6257 88.4672C32.7038 88.599 33.3234 88.0553 33.6498 88.0553H50.1731C50.8217 88.0553 52.5731 87.1904 53.6802 87.6476V88.0512C53.0275 87.7876 52.3212 88.4301 52.032 88.4672C45.844 89.2333 37.9376 88.3848 31.5761 88.8873C30.4071 88.842 29.4239 88.2736 28.8993 87.2316Z" fill="#1C4370"/>
<path d="M68.1423 104.53C66.4528 106.016 61.7271 104.855 59.5625 104.431C57.7615 99.9828 56.4809 94.3938 54.5105 90.1146L60.4672 104.151C61.8138 105.115 66.2958 104.229 68.1423 104.53Z" fill="#1C4370"/>
<path d="M51.2058 82.2893L29.7255 83.113C30.5186 82.6847 34.129 82.3387 35.2856 82.2728C40.4822 81.9722 45.9803 82.5323 51.2058 82.2893Z" fill="#1C4370"/>
<path fill-rule="evenodd" clip-rule="evenodd" d="M237.093 104.118C236.829 87.7712 236.693 71.2968 236.68 54.6948L236.684 54.6989C236.313 53.8299 229.365 53.8381 229.055 54.0811C229.034 59.46 229.026 64.8389 229.034 70.2136L228.832 69.9377C228.599 70.0248 228.552 70.3347 228.51 70.6104C228.457 70.9606 228.412 71.2554 228.006 70.9673C227.134 70.3493 226.457 69.7568 225.833 69.2112C224.201 67.7822 222.936 66.6745 219.492 66.2721C209.867 65.1478 202.485 71.3998 200.742 80.6419C200.222 86.2885 200.593 91.692 202.394 97.1162C203.683 99.8345 207.079 103.311 209.83 104.53C214.742 105.778 219.447 106.284 224.288 104.118C225.305 103.524 226.181 102.727 227.054 101.932C227.634 101.404 228.213 100.877 228.832 100.411C228.972 101.741 229.109 102.977 229.245 104.118C229.328 104.344 229.414 104.521 229.513 104.53C231.736 104.711 235.193 104.678 237.093 104.118ZM218.013 74.1551C233.611 72.8866 232.401 102.507 215.522 97.4128C205.885 94.505 206.996 75.053 218.013 74.1551Z" fill="#1C4370"/>
<path d="M228.832 100.411L229.241 100.617C229.394 101.185 229.067 104.118 229.241 104.118H237.089C236.788 103.5 236.668 102.989 236.651 102.289C236.255 86.4491 236.998 70.539 236.676 54.6948C236.156 54.18 236.383 54.1264 237.089 54.2829L236.883 104.942H229.447C228.501 104.942 228.885 101.255 228.828 100.411H228.832Z" fill="#1C4370"/>
<path d="M237.093 54.2829L236.68 54.6948C234.466 53.7558 231.608 54.5301 229.241 54.2788V70.9591C228.629 71.6551 228.836 70.1889 228.832 69.9294C228.695 64.5876 228.935 59.2088 228.832 53.8628C230.546 54.1676 236.098 53.2739 237.098 54.2788L237.093 54.2829Z" fill="#1C4370"/>
<path d="M202.394 97.1162C200.16 92.4046 199.792 85.6913 200.742 80.6419C201.647 82.7547 200.217 85.5059 200.746 87.8453L202.394 97.1162Z" fill="#1C4370"/>
<path d="M224.288 104.118C220.26 106.47 214.068 106.412 209.83 104.53C210.206 103.718 211.144 104.373 211.689 104.526C214.209 105.217 216.039 105.584 218.724 105.37L224.284 104.118H224.288Z" fill="#1C4370"/>
<path d="M274.684 74.8759C275.155 75.7572 276.749 79.7234 276.749 80.436V88.4672H251.138C251.551 87.281 273.536 88.3066 276.341 87.6476L276.332 82.9153L274.684 74.88V74.8759Z" fill="#1C4370"/>
<path d="M263.944 105.765C258.297 106.387 254.893 105.901 250.312 102.882C252.526 103.582 254.435 104.925 256.822 105.246C259.189 105.568 261.742 104.884 263.944 105.765Z" fill="#1C4370"/>
<path fill-rule="evenodd" clip-rule="evenodd" d="M276.456 88.0677C276.886 83.5455 276.332 79.1015 274.684 74.8759C272.111 70.0695 266.728 66.6716 261.255 66.2351C241.555 64.6659 235.007 92.7958 250.312 102.882C254.641 105.712 259.012 105.749 263.944 105.765C269.76 105.127 275.072 99.8551 276.336 94.2332H268.281C267.686 94.2332 267.26 94.9872 266.837 95.7364C266.578 96.194 266.32 96.6498 266.026 96.9309C262.762 100.045 255.633 99.1014 253.022 95.4441C252.014 94.0273 250.577 90.0858 251.138 88.4672C259.565 88.1748 268.004 88.0389 276.456 88.0677ZM261.465 82.7012C263.469 83.2984 266.331 83.076 268.488 82.7012C268.74 81.9639 268.145 79.8346 267.856 79.0068C264.774 70.1848 250.899 72.8742 251.138 82.2893C251.311 82.4601 252.727 82.4002 254.467 82.3266C257.173 82.212 260.661 82.0644 261.465 82.7012Z" fill="#1C4370"/>
<path d="M261.465 82.7012H268.488C268.281 83.3066 267.938 83.076 267.476 83.1295C262.494 83.7432 256.261 82.6394 251.138 83.1089C251.043 82.3923 252.076 82.7218 252.576 82.7012C255.517 82.5817 258.516 82.7012 261.461 82.7012L261.465 82.7012Z" fill="#1C4370"/>
<path fill-rule="evenodd" clip-rule="evenodd" d="M309.177 55.6297L308.97 71.1691C301.762 63.4221 289.187 65.0778 283.772 74.0522C279.988 82.1163 280.108 90.7695 283.772 98.7637C284.941 100.679 286.783 102.573 288.729 103.706C293.892 105.576 299.874 106.968 304.839 103.706C305.884 103.203 306.9 102.668 307.756 101.877C307.99 101.659 308.128 101.383 308.255 101.13C308.434 100.772 308.591 100.459 308.966 100.415L308.964 100.457C308.891 101.91 308.847 102.776 309.383 104.118C309.47 104.11 309.61 104.245 309.796 104.53C312.163 104.814 314.861 104.958 317.232 104.53C317.446 104.431 317.616 104.336 317.616 104.241C317.686 87.9194 317.603 70.749 317.232 54.6948C315.005 54.3694 312.142 54.3447 310.003 54.6948C309.437 54.3488 309.164 54.6619 309.177 55.6297ZM308.144 92.9976C310.796 88.636 309.809 82.1452 307.318 77.7589C302.712 72.7383 293.719 72.9772 290.885 79.7028C287.357 88.0718 290.34 99.4144 301.291 97.9029C304.274 97.4916 305.506 96.0468 306.993 94.304C307.352 93.8825 307.726 93.4436 308.144 92.9976Z" fill="#1C4370"/>
<path d="M308.97 71.1691V54.2829H317.645L318 104.266C317.566 105.588 310.945 104.723 309.429 104.88C309.251 104.645 309.445 104.274 309.383 104.114L309.792 100.823C309.937 101.284 309.61 104.526 309.796 104.526H317.232V54.6907H310.003C309.771 54.6907 309.371 55.3826 309.383 55.7203L308.97 71.165V71.1691Z" fill="#1C4370"/>
<path d="M283.772 98.7637C279.583 91.898 279.625 80.9261 283.772 74.0522C284.602 74.3034 283.772 75.2836 283.569 75.7037C281.355 80.3865 280.942 84.6946 281.343 89.8593L283.772 98.7637Z" fill="#1C4370"/>
<path d="M304.839 103.706C301.08 107.211 292.909 106.14 288.729 103.706L296.35 105.37C299.56 105.535 301.972 105.086 304.839 103.706Z" fill="#1C4370"/>
<path d="M308.144 92.9976C310.284 87.9524 309.495 82.6147 307.318 77.7589C310.164 80.8602 310.697 89.0191 308.887 92.7505C308.462 93.6278 308.177 92.9606 308.144 92.9976Z" fill="#1C4370"/>
<path fill-rule="evenodd" clip-rule="evenodd" d="M149.603 67.0307C154.213 66.833 158.613 67.5826 162.822 69.5019C175.264 76.9688 174.942 98.8632 161.583 104.098C156.258 106.915 150.549 106.108 145.059 104.922C127.954 97.9077 131.638 68.8182 149.603 67.0307ZM153 99C159.627 99 165 93.4036 165 86.5C165 79.5965 159.627 74 153 74C146.373 74 141 79.5965 141 86.5C141 93.4036 146.373 99 153 99Z" fill="#1C4370"/>
</g>
<defs>
<clipPath id="clip0_1_3">
<rect width="318" height="106" fill="white"/>
</clipPath>
</defs>
</svg>
